<svg xmlns="http://www.w3.org/2000/svg" fill="none" viewBox="0 0 48 48">
  <rect width="48" height="48" fill="#fff" rx="5"/>
  <path fill="#000" d="m40.88 33.349.701 1.544c.04.085.085.17.118.262.219.525-.067.94-.642.936l-.127-.005q-.813-.031-1.625-.056c-.389-.01-.613.273-.522.66l.379 1.616q.033.123.045.25a.596.596 0 0 1-.74.645c-.54-.115-1.075-.25-1.615-.376a1 1 0 0 1-.154-.038c-.205-.093-.356-.013-.51.121a.42.42 0 0 0-.17.381c.028.552.042 1.105.062 1.657q.008.128 0 .255a.6.6 0 0 1-.815.545c-.09-.03-.177-.073-.263-.113-.494-.224-.985-.452-1.48-.674a.505.505 0 0 0-.707.378c-.1.586-.188 1.174-.296 1.76-.108.584-.564.764-1.06.42-.46-.326-.913-.659-1.37-.987-.347-.25-.698-.147-.846.246l-.56 1.49c-.023.06-.043.121-.069.179-.205.47-.695.569-1.056.197-.407-.419-.8-.85-1.198-1.28-.196-.21-.43-.274-.68-.164a.46.46 0 0 0-.17.181q-.439.7-.875 1.409c-.044.072-.085.147-.137.214a.607.607 0 0 1-1.005 0c-.063-.085-.116-.178-.17-.268-.285-.46-.566-.924-.855-1.382-.147-.233-.55-.273-.738-.075-.352.37-.698.745-1.046 1.119-.08.085-.157.17-.241.255-.37.36-.859.27-1.055-.206-.147-.353-.272-.714-.406-1.072q-.116-.315-.234-.627a.506.506 0 0 0-.784-.246q-.648.464-1.293.931c-.06.044-.12.09-.182.13-.448.29-.909.095-1.008-.432-.054-.282-.093-.567-.138-.85q-.07-.457-.145-.913c-.063-.376-.398-.549-.752-.388q-.726.33-1.446.661-.086.042-.175.079c-.49.2-.916-.085-.907-.614.008-.596.032-1.19.063-1.786a.52.52 0 0 0-.652-.537c-.575.148-1.163.255-1.734.417a.638.638 0 0 1-.783-.772c.158-.562.273-1.136.405-1.701.1-.431-.114-.699-.548-.685q-.812.026-1.625.056c-.053 0-.106.006-.159 0-.51-.013-.788-.425-.595-.902.106-.256.227-.504.34-.756.132-.289.255-.583.401-.867a.535.535 0 0 0-.411-.765c-.567-.085-1.133-.179-1.701-.27q-.032-.001-.063-.01c-.505-.107-.704-.567-.412-.993q.504-.737 1.044-1.445a.536.536 0 0 0-.245-.835 64 64 0 0 1-1.643-.61c-.351-.134-.52-.388-.443-.71a.9.9 0 0 1 .24-.396c.418-.409.851-.8 1.276-1.2a.58.58 0 0 0 .123-.659.5.5 0 0 0-.19-.159q-.7-.438-1.407-.875c-.063-.039-.129-.075-.188-.12-.37-.275-.369-.75.004-1.02.068-.05.143-.092.215-.136q.706-.435 1.408-.874a.505.505 0 0 0 .079-.758c-.433-.408-.875-.808-1.304-1.221a1 1 0 0 1-.25-.358c-.108-.323.057-.617.408-.755.495-.193.994-.375 1.49-.562l.18-.067a.59.59 0 0 0 .397-.57.5.5 0 0 0-.108-.222q-.48-.675-.967-1.347c-.043-.06-.089-.12-.128-.182-.255-.414-.067-.863.407-.954.5-.096 1.005-.17 1.507-.255a1 1 0 0 1 .251-.04c.322.024.413-.217.503-.441a.4.4 0 0 0-.043-.266c-.218-.496-.446-.988-.67-1.48q-.055-.116-.103-.235c-.17-.45.093-.857.574-.86.425 0 .85.022 1.276.035.212.007.425.023.637.025a.51.51 0 0 0 .47-.595c-.135-.59-.278-1.179-.41-1.77-.124-.559.235-.92.797-.794.562.125 1.137.269 1.7.403.382.09.66-.141.648-.537q-.026-.83-.056-1.658c0-.053-.006-.106-.005-.159.017-.497.426-.765.887-.588.128.05.255.112.377.17.445.203.888.41 1.334.61a.51.51 0 0 0 .68-.359c.08-.438.145-.88.216-1.32.026-.17.047-.34.08-.504.101-.522.572-.725 1.01-.425.49.34.967.694 1.45 1.04.316.225.675.118.81-.24.215-.566.415-1.138.64-1.7.189-.467.671-.56 1.034-.217.062.058.117.123.176.185l1.02 1.096c.34.366.665.33.936-.104.29-.469.578-.94.874-1.408.32-.502.82-.497 1.144.006l.134.217c.256.416.51.832.773 1.247.217.348.574.382.857.085q.534-.57 1.066-1.142.074-.083.153-.163c.373-.364.857-.274 1.051.21.217.542.425 1.089.613 1.64a.52.52 0 0 0 .408.387.43.43 0 0 0 .41-.085c.435-.323.878-.636 1.319-.952.06-.043.119-.09.182-.128.406-.255.868-.07.958.398.117.604.207 1.214.309 1.822a.5.5 0 0 0 .717.393q.755-.34 1.508-.685c.068-.031.134-.068.203-.091.438-.15.836.116.838.58 0 .435-.021.871-.036 1.307-.005.18-.005.362-.026.54-.023.192.055.31.198.432a.47.47 0 0 0 .467.102c.535-.135 1.074-.255 1.611-.384.041-.01.086-.025.124-.032.527-.096.878.255.771.78-.08.395-.184.785-.277 1.177-.05.207-.104.413-.147.62a.51.51 0 0 0 .485.596c.532-.013 1.063-.038 1.593-.056.096 0 .191-.007.288-.006.5.01.778.411.589.875-.152.373-.33.736-.497 1.105-.085.193-.178.386-.264.58a.5.5 0 0 0 .369.708c.586.098 1.17.217 1.76.286.543.063.774.635.433 1.07s-.655.892-.981 1.341c-.28.391-.187.719.255.885l1.462.55q.075.026.148.057c.51.213.606.692.205 1.088-.105.105-.216.204-.325.306-.318.298-.629.605-.959.888a.49.49 0 0 0-.178.473.42.42 0 0 0 .218.356c.457.273.905.557 1.36.837.086.05.167.097.244.153.39.283.388.765-.006 1.04-.147.105-.305.193-.46.288-.387.241-.778.477-1.164.722a.5.5 0 0 0-.072.74c.409.388.823.766 1.234 1.154.063.058.128.114.184.177.297.34.213.792-.195.982-.25.116-.51.202-.772.299-.34.127-.68.25-1.013.38a.502.502 0 0 0-.233.75c.294.417.595.828.892 1.242.063.085.128.17.186.256.28.43.093.898-.41.997-.418.085-.84.138-1.259.206a2 2 0 0 1-.313.05c-.371 0-.6.171-.694.586m-9.355-10.235.673.552a4.4 4.4 0 0 1 1.47 2.19c.134.447.255.9.34 1.36a1 1 0 0 0 .502.698c.417.243.9.345 1.38.29.98-.084 1.562-.594 1.743-1.56q.047-.299.047-.602c.009-.233 0-.467.005-.7.01-.255.073-.318.33-.321.404-.006.807 0 1.211 0 .091 0 .182-.015.278-.024q.086-1.24-.01-2.479a.3.3 0 0 0-.212-.28c-.266-.107-.526-.23-.788-.346-.621-.277-1.246-.546-1.862-.831-.53-.244-.782-.719-.68-1.27q.047-.219.144-.42.653-1.487 1.32-2.97c.071-.162.09-.298-.024-.442a2 2 0 0 1-.116-.19q-3.572-5.661-10.108-7.124a.5.5 0 0 0-.51.142c-.59.583-1.191 1.15-1.794 1.723q-.067.068-.139.132c-.524.478-1.18.47-1.677-.036q-.885-.91-1.741-1.833a.42.42 0 0 0-.447-.143q-4.835 1.038-8.225 4.634a3 3 0 0 0-.165.228h16.152a6 6 0 0 1 1.422.16c1.548.38 2.855 1.142 3.804 2.447 1.026 1.411 1.285 3.425-.129 5.127a8.8 8.8 0 0 1-1.804 1.61zm-20.02 9.98q.581.789 1.257 1.497c.08.085.17.071.262.05l1.09-.232c.468-.098.936-.216 1.403-.289a1.11 1.11 0 0 1 1.26.741q.064.197.101.401.264 1.23.524 2.46a.41.41 0 0 0 .25.333 15.7 15.7 0 0 0 5.034 1.297 15.6 15.6 0 0 0 7.528-1.233.4.4 0 0 0 .255-.325c.179-.873.37-1.744.56-2.615.17-.765.71-1.13 1.477-.98.228.045.456.102.68.15l1.88.4c.51-.452 1.27-1.371 1.36-1.655h-.344c-1.956 0-3.912-.01-5.868.006a1.88 1.88 0 0 1-1.36-.525 4.1 4.1 0 0 1-1.258-2.101c-.163-.704-.304-1.411-.456-2.117-.112-.518-.194-1.045-.442-1.524-.466-.901-1.202-1.384-2.222-1.392-1.244-.01-2.487 0-3.73 0-.085 0-.163.016-.243.024v2.816h3.648c.244.014.274.046.285.28v4.049c0 .483 0 .484-.498.484zm-2.45-4.999c.467.066 4.208.043 4.422-.024.062-.659.033-9.625-.033-9.855-.476-.059-1.89-.037-2.116.035.036.085.068.176.107.262.135.311.274.62.408.935.1.212.132.45.09.68-.085.432-.344.716-.742.89-.796.35-1.587.714-2.387 1.053-.211.09-.272.213-.29.425a15.8 15.8 0 0 0 .139 3.81q.132.91.4 1.79zm11.455-6.888a1 1 0 0 0 .128.024c1.627 0 3.252.01 4.878-.006.545-.005 1.08-.112 1.553-.41.68-.426.777-1.252.225-1.83a1.5 1.5 0 0 0-.267-.226 2.6 2.6 0 0 0-1.436-.454h-4.753c-.103 0-.207.009-.33.014zm14.041 15.84a1.257 1.257 0 1 0-2.513.023 1.257 1.257 0 0 0 2.513-.023m-24.42-17.864a1.256 1.256 0 1 0-2.512.04 1.256 1.256 0 0 0 2.512-.04m27.606.085a1.264 1.264 0 1 0 1.24-1.276 1.276 1.276 0 0 0-1.24 1.277M25.197 7.752a1.258 1.258 0 1 0-.762 1.17 1.25 1.25 0 0 0 .762-1.17m-9.384 29.24a1.248 1.248 0 0 0-2.495-.006 1.28 1.28 0 0 0 1.249 1.268c.68.01 1.247-.568 1.246-1.262"/>
</svg>