<svg xmlns="http://www.w3.org/2000/svg" xml:space="preserve" overflow="hidden" viewBox="0 0 660 660">
  <defs>
    <clipPath id="a">
      <path d="M630 383h660v660H630z"/>
    </clipPath>
  </defs>
  <g clip-path="url(#a)" transform="translate(-630 -383)">
    <path fill="#5DC9E1" fill-rule="evenodd" d="M715.799 711.613h64.268c1.286 0 1.928.961 1.928 2.244l-.642 7.694c0 1.282-1.286 2.244-2.25 2.244l-70.053-.321c-1.285 0-1.606-.962-.964-1.923l4.499-8.015c.643-.962 1.928-1.923 3.214-1.923Zm-75.195-29.495h146.533c1.285 0 1.928.962 1.607 1.924l-2.571 7.694c-.321 1.282-1.607 1.923-2.892 1.923l-151.996.321c-1.285 0-1.607-.641-.964-1.603l6.748-8.656c.643-.961 2.25-1.603 3.535-1.603Zm48.523-29.494h114.72c1.285 0 1.607.962.964 1.924l-5.463 8.335c-.643.962-2.249 1.924-3.213 1.924l-116.327-.321c-1.285 0-1.607-.641-.964-1.603l6.748-8.656c.643-.962 2.25-1.603 3.535-1.603Zm492.113-.135c-7.12-1.187-14.68-.987-22.31.776-29.88 6.733-49.16 25.647-56.23 55.782-5.79 25.006 6.42 50.333 29.56 60.591 17.67 7.694 35.35 6.732 52.38-1.923 25.39-13.145 39.2-33.662 40.81-61.233-.32-4.167-.32-7.373-.96-10.579-4.34-23.803-21.88-39.853-43.25-43.414Zm-235.465-62.46c22.097-.48 43.246 4.809 62.765 18.033 17.03 11.221 29.25 26.609 37.28 45.203 1.93 2.885.64 4.488-3.22 5.45-20.24 5.13-34.06 8.977-53.981 14.106-4.82 1.282-5.141 1.603-9.318-3.206-4.821-5.45-8.355-8.976-15.104-12.182-20.244-9.938-39.847-7.053-58.163 4.809-21.851 14.105-33.099 34.944-32.777 60.911.321 25.647 17.995 46.806 43.381 50.332 21.851 2.886 40.169-4.808 54.629-21.158 2.892-3.527 5.463-7.374 8.676-11.862h-62.02c-6.747 0-8.354-4.168-6.105-9.617 4.177-9.939 11.89-26.609 16.388-34.945.965-1.923 3.214-5.129 8.034-5.129h104.24l21.41-41.676c23.45-30.777 51.73-46.806 89.97-53.539 8.2-1.442 16.27-2.324 24.21-2.539 23.81-.646 46.41 4.703 67.38 18.889 25.38 17.312 41.13 40.715 45.3 71.491 5.47 43.28-7.07 78.544-36.95 108.679-21.21 21.48-47.24 34.945-77.12 41.036-8.68 1.602-17.36 1.923-25.71 2.885-29.24-.641-55.91-8.976-78.41-28.211-9.48-8.176-17.19-17.473-23.01-27.812l-8.53-24.833-14.09 24.432c-23.14 30.457-53.342 49.371-91.582 54.5-31.492 4.168-60.733-1.923-86.441-21.158-23.779-17.953-37.276-41.677-40.811-71.171-4.177-34.944 6.106-66.361 27.315-93.932 22.814-29.814 53.021-48.729 89.976-55.462 7.551-1.362 15.022-2.163 22.388-2.324Z"/>
  </g>
</svg>