<svg xmlns="http://www.w3.org/2000/svg" xml:space="preserve" version="1.1" viewBox="0 0 2877 142">
  <style>
    .shp{fill-rule:evenodd;clip-rule:evenodd}
    .active{fill:#f4364c}
    .inactive{fill:#0078d4}
    .txt{fill:#fff;font-family:Aptos,SegoeUI,ArialMT,Arial,Helvetica,sans-serif;font-size:55px}
  </style>
  <path class="shp inactive" d="M235 0h452l71 71-71 71H235l71-71-71-71z"/>
  <text class="txt" transform="translate(387 86)">Overview</text>
  <path class="shp active" d="M707 0h452l71 71-71 71H707l71-71-71-71z"/>
  <text class="txt" transform="translate(853 86)">Concepts</text>
  <path class="shp inactive" d="M1176 0h452l71 71-71 71h-452l71-71-71-71z"/>
  <text class="txt" transform="translate(1346 86)">Prepare</text>
  <path class="shp inactive" d="M1649 0h452l71 71-71 71h-452l71-71-71-71z"/>
  <text class="txt" transform="translate(1843 86)">RBAC</text>
  <path class="shp inactive" d="M2119 0h452l71 71-71 71h-452l71-71-71-71z"/>
  <text class="txt" transform="translate(2273 86)">Reference</text>
</svg>