<svg viewBox="0 0 1280 720" width="1280" height="720" xmlns="http://www.w3.org/2000/svg">
  <style>
    path {
      stroke: #000000;
      stroke-width: 2;
      fill: none;
      marker-end: url(#arrowhead);
    }
    rect {
      fill: #FFFFFF;
      stroke: #000000;
      stroke-width: 2;
    }
    rect.background {
      fill: #FFFFFF;
      stroke: none;
    }
    rect.highlight {
      fill: #2A446F;
    }
    text {
      font-family: 'Segoe UI', sans-serif;
      font-size: 13px;
      font-weight: 400;
      fill: #000000;
    }
    text.size-lg {
      font-size: 19px;
    }
    text.weight-bold {
      font-weight: 600;
    }
    text.align-center {
      text-anchor: middle;
    }
    text.color-inverse {
      fill: #FFFFFF;
    }
  </style>
  <!-- Background -->
  <rect x="0" y="-1" width="1280" height="720" class="background"/>
  
  <!-- Title -->
  <text x="640" y="40" class="size-lg weight-bold align-center">Network Monitoring and Analytics Architecture</text>
  
  <!-- Network Infrastructure Section -->
  <text x="23" y="119" class="size-lg weight-bold">Network Infrastructure</text>
  
  <!-- Base Stations -->
  <rect x="50" y="140" width="140" height="80" rx="10"/>
  <text x="120" y="165" class="align-center">5G Base Stations</text>
  <text x="120" y="185" class="align-center">Cell Towers</text>
  
  <!-- Routers and Switches -->
  <rect x="50" y="240" width="140" height="80" rx="10"/>
  <text x="120" y="265" class="align-center">Core Routers</text>
  <text x="120" y="285" class="align-center">and Switches</text>
  
  <!-- Fiber Network -->
  <rect x="50" y="340" width="140" height="80" rx="10"/>
  <text x="120" y="365" class="align-center">Fiber Optic</text>
  <text x="120" y="385" class="align-center">Network</text>
  
  <!-- Data Centers -->
  <rect x="50" y="440" width="140" height="80" rx="10"/>
  <text x="120" y="465" class="align-center">Data Centers</text>
  <text x="120" y="485" class="align-center">and Edge Sites</text>
  
  <!-- Data Collection Section -->
  <text x="307" y="119" class="size-lg weight-bold">Data Collection</text>
  
  <!-- Network Monitoring Agents -->
  <rect x="280" y="160" width="200" height="80" rx="10"/>
  <text x="380" y="185" class="align-center">Network Monitoring Agents</text>
  <text x="380" y="205" class="align-center">SNMP, NetFlow, sFlow</text>
  
  <!-- Log Aggregation -->
  <rect x="280" y="260" width="200" height="80" rx="10"/>
  <text x="380" y="285" class="align-center">Log Aggregation Service</text>
  <text x="380" y="305" class="align-center">Syslog, Event Logs</text>
  
  <!-- Stream Processing Section -->
  <text x="543" y="119" class="size-lg weight-bold">Stream Processing</text>
  
  <!-- Azure Stream Analytics -->
  <rect x="520" y="140" width="200" height="120" rx="10"/>
  <text x="620" y="170" class="weight-bold align-center">Azure Stream Analytics</text>
  <text x="620" y="200" class="align-center">• Real-time Processing</text>
  <text x="620" y="220" class="align-center">• Anomaly Detection</text>
  <text x="620" y="240" class="align-center">• Performance Metrics</text>
  
  <!-- Data Storage Section -->
  <text x="519" y="492" class="size-lg weight-bold">Network Data Storage</text>
  
  <!-- Azure DocumentDB -->
  <rect x="520" y="340" width="200" height="120" rx="10" class="highlight"/>
  <text x="620" y="370" class="weight-bold align-center color-inverse">Azure DocumentDB</text>
  <text x="620" y="400" class="align-center color-inverse">• Network Metrics</text>
  <text x="620" y="420" class="align-center color-inverse">• Performance Data</text>
  <text x="620" y="440" class="align-center color-inverse">• Alert History</text>
  
  <!-- Operations Center Section -->
  <text x="833" y="119" class="size-lg weight-bold">Network Operations</text>
  
  <!-- NOC Dashboard -->
  <rect x="824" y="223" width="200" height="80" rx="10"/>
  <text x="924" y="248" class="align-center">NOC Dashboard</text>
  <text x="924" y="268" class="align-center">Real-time Monitoring</text>
  
  <!-- Mobile Operations -->
  <rect x="824" y="323" width="200" height="80" rx="10"/>
  <text x="924" y="348" class="align-center">Mobile Operations App</text>
  <text x="924" y="368" class="align-center">Field Engineers</text>
  
  <!-- Automation Section -->
  <!--Azure Logic Apps-->
  <rect x="280" y="420" width="200" height="120" rx="10"/>
  <text x="380" y="450" class="weight-bold align-center">Azure Logic Apps</text>
  <text x="380" y="480" class="align-center">• Incident Response</text>
  <text x="380" y="500" class="align-center">• Auto-remediation</text>
  <text x="380" y="520" class="align-center">• Escalation Workflows</text>
  <!--Analytics Section-->
  <text x="818" y="560" class="size-lg weight-bold">Analytics and Reporting</text>
  <!--Performance Analytics-->
  <rect x="820" y="420" width="200" height="100" rx="10"/>
  <text x="920" y="450" class="align-center">Performance Analytics</text>
  <text x="920" y="470" class="align-center">• Capacity Planning</text>
  <text x="920" y="490" class="align-center">• Trend Analysis</text>
  <!--Alert System Section-->
  <text x="1092" y="119" class="size-lg weight-bold">Alert System</text>
  <!--Alert Engine-->
  <rect x="1080" y="160" width="140" height="80" rx="10"/>
  <text x="1150" y="185" class="align-center">Alert Engine</text>
  <text x="1150" y="205" class="align-center">Threshold Rules</text>
  <!--Notification Service-->
  <rect x="1080" y="260" width="140" height="80" rx="10"/>
  <text x="1150" y="285" class="align-center">Notification</text>
  <text x="1150" y="305" class="align-center">Service</text>
  <!--External Integration Section-->
  <text x="192" y="704" class="size-lg weight-bold">External Integration</text>
  <!--ITSM Integration-->
  <rect x="50" y="600" width="140" height="80" rx="10"/>
  <text x="120" y="625" class="align-center">ITSM Systems</text>
  <text x="120" y="645" class="align-center">ServiceNow</text>
  <!--Customer Systems-->
  <rect x="210" y="600" width="140" height="80" rx="10"/>
  <text x="280" y="625" class="align-center">Customer Care</text>
  <text x="280" y="645" class="align-center">Systems</text>
  <!--Third-party Tools-->
  <rect x="370" y="600" width="140" height="80" rx="10"/>
  <text x="440" y="625" class="align-center">Third-party</text>
  <text x="440" y="645" class="align-center">Monitoring Tools</text>
  <!--Arrows-->
  <!--Network Infrastructure to Data Collection-->
  <path d="M 190 180 L 280 200"/>
  <path d="M 190 280 L 280 240"/>
  <path d="M 190 380 L 280 280"/>
  <path d="M 190 480 L 280 320"/>
  <!--Data Collection to Stream Analytics-->
  <path d="M 480 200 L 520 200"/>
  <path d="M 480 300 L 520 220"/>
  <!--Stream Analytics to DocumentDB-->
  <path d="M 620 260 L 620 340"/>
  <!--DocumentDB to Operations-->
  <path d="M 720 380 L 819 248"/>
  <path d="M 720 400 L 822 352"/>
  <!--DocumentDB to Analytics-->
  <path d="M 720 440 L 820 470"/>
  <!--Stream Analytics to Alerts-->
  <path d="M 720 180 L 1080 200"/>
  <!--Alerts to Notifications-->
  <path d="M 1150 240 L 1150 260"/>
  <!--Stream Analytics to Logic Apps-->
  <path d="M 580 260 L 380 420"/>
  <!--Logic Apps to External Systems-->
  <path d="M 280 480 L 120 600"/>
  <path d="M 320 540 L 280 600"/>
  <path d="M 400 540 L 440 600"/>
  <!--Data flow labels-->
  <text x="194" y="232">Network Data</text>
  <text x="630" y="310">Processed Data</text>
  <text transform="matrix(0.6,-0.8,0.8,0.6,72.5,741.6)" x="708" y="324.7">Dashboard Data</text>
  <text x="748" y="439">Analytics</text>
  <text x="900" y="180">Alerts</text>
  <text x="344" y="385">Automation</text>
  <text x="312" y="579">Integration</text>
  <!--Arrow marker definition-->
  <defs>
    <marker id="arrowhead" markerWidth="10" markerHeight="7" refX="9" refY="3.5" orient="auto">
        <polygon fill="black" points="0,0 10,3.5 0,7"/>
    </marker>
  </defs>
</svg>