<svg viewBox="0 0 1280 720" width="1280" height="720" xmlns="http://www.w3.org/2000/svg">
  <style>
    path {
      stroke: #000000;
      stroke-width: 2;
      fill: none;
      marker-end: url(#arrowhead);
    }
    rect {
      fill: #FFFFFF;
      stroke: #000000;
      stroke-width: 2;
    }
    rect.background {
      fill: #FFFFFF;
      stroke: none;
    }
    rect.highlight {
      fill: #2A446F;
    }
    text {
      font-family: 'Segoe UI', sans-serif;
      font-size: 13px;
      font-weight: 400;
      fill: #000000;
    }
    text.size-lg {
      font-size: 19px;
    }
    text.weight-bold {
      font-weight: 600;
    }
    text.align-center {
      text-anchor: middle;
    }
    text.color-inverse {
      fill: #FFFFFF;
    }
  </style>
  <!-- Background -->
  <rect x="0.3" y="0" width="1280" height="720" class="background"/>
  
  <!-- Title -->
  <text x="640" y="40" class="size-lg weight-bold align-center">Real-time Inventory Management Architecture</text>
  
  <!-- Data Sources Section -->
  <text x="50" y="117" class="size-lg weight-bold">Data Sources</text>
  
  <!-- Retail Stores -->
  <rect x="50" y="140" width="140" height="80" rx="10"/>
  <text x="120" y="165" class="align-center">Retail Stores</text>
  <text x="120" y="185" class="align-center">POS Systems</text>
  
  <!-- Warehouses -->
  <rect x="50" y="240" width="140" height="80" rx="10"/>
  <text x="120" y="265" class="align-center">Warehouses</text>
  <text x="120" y="285" class="align-center">WMS Systems</text>
  
  <!-- E-commerce Platform -->
  <rect x="50" y="340" width="140" height="80" rx="10"/>
  <text x="120" y="365" class="align-center">E-commerce</text>
  <text x="120" y="385" class="align-center">Platform</text>
  
  <!-- Supply Chain -->
  <rect x="50" y="440" width="140" height="80" rx="10"/>
  <text x="120" y="465" class="align-center">Supply Chain</text>
  <text x="120" y="485" class="align-center">Partners</text>
  
  <!-- Integration Layer Section -->
  <text x="256" y="117" class="size-lg weight-bold">Integration and Orchestration</text>
  
  <!-- Azure Logic Apps -->
  <rect x="280" y="200" width="200" height="120" rx="10"/>
  <text x="380" y="230" class="weight-bold align-center">Azure Logic Apps</text>
  <text x="380" y="260" class="align-center">• Data Synchronization</text>
  <text x="380" y="280" class="align-center">• Workflow Automation</text>
  <text x="380" y="300" class="align-center">• Real-time Updates</text>
  
  <!-- Unified Inventory Platform Section -->
  <text x="539" y="117" class="size-lg weight-bold">Unified Inventory Platform</text>
  
  <!-- Azure DocumentDB -->
  <rect x="540" y="140" width="200" height="120" rx="10" class="highlight"/>
  <text x="640" y="170" class="weight-bold align-center color-inverse">Azure DocumentDB</text>
  <text x="640" y="200" class="align-center color-inverse">• Inventory Levels</text>
  <text x="640" y="220" class="align-center color-inverse">• Product Catalog</text>
  <text x="640" y="240" class="align-center color-inverse">• Demand Forecasts</text>
  
  <!-- Analytics Section -->
  <text x="822" y="117" class="size-lg weight-bold">Analytics and Forecasting</text>
  
  <!-- Azure Synapse Analytics -->
  <rect x="820" y="140" width="200" height="120" rx="10"/>
  <text x="920" y="170" class="weight-bold align-center">Azure Synapse</text>
  <text x="920" y="190" class="weight-bold align-center">Analytics</text>
  <text x="920" y="220" class="align-center">• Demand Forecasting</text>
  <text x="920" y="240" class="align-center">• Trend Analysis</text>
  
  <!-- Inventory Management Section -->
  <text x="642" y="495" class="size-lg weight-bold">Inventory Management Services</text>
  
  <!-- Replenishment Service -->
  <!--Stock Optimization-->
  <rect x="630" y="360" width="140" height="100" rx="10"/>
  <text x="700" y="390" class="align-center">Stock</text>
  <text x="700" y="410" class="align-center">Optimization</text>
  <text x="700" y="430" class="align-center">Engine</text>
  <!--Safety Stock Management-->
  <rect x="790" y="360" width="140" height="100" rx="10"/>
  <text x="860" y="390" class="align-center">Safety Stock</text>
  <text x="860" y="410" class="align-center">Management</text>
  
  <!--Business Applications Section-->
  <text x="954" y="573" class="size-lg weight-bold">Business Applications</text>
  <!--Operations Dashboard-->
  <rect x="980" y="360" width="140" height="80" rx="10"/>
  <text x="1050" y="385" class="align-center">Operations</text>
  <text x="1050" y="405" class="align-center">Dashboard</text>
  
  <!--Mobile Inventory App-->
  <rect x="980" y="460" width="140" height="80" rx="10"/>
  <text x="1050" y="485" class="align-center">Mobile Inventory</text>
  <text x="1050" y="505" class="align-center">App</text>
  
  <!--Alert and Notification Section-->
  <text x="646" y="678" class="size-lg weight-bold">Alert and Notification System</text>
  <!--Alert Engine-->
  <rect x="618" y="534" width="130" height="100" rx="10"/>
  <text x="683" y="564" class="align-center">Alert Engine</text>
  <text x="683" y="584" class="align-center">Stock-out</text>
  <text x="683" y="604" class="align-center">Overstock</text>
  <!--Notification Hub-->
  <rect x="768" y="534" width="130" height="100" rx="10"/>
  <text x="833" y="564" class="align-center">Notification Hub</text>
  <text x="833" y="584" class="align-center">Email, SMS</text>
  <text x="833" y="604" class="align-center">Push Notifications</text>
  <!--External Systems Section-->
  <text x="282" y="704" class="size-lg weight-bold">External System Integration</text>
  <!--ERP Systems-->
  <rect x="200" y="600" width="120" height="80" rx="10"/>
  <text x="260" y="625" class="align-center">ERP Systems</text>
  <text x="260" y="645" class="align-center">SAP, Oracle</text>
  <!--CRM Systems-->
  <rect x="340" y="600" width="120" height="80" rx="10"/>
  <text x="400" y="625" class="align-center">CRM Systems</text>
  <!--Third-party APIs-->
  <rect x="480" y="600" width="120" height="80" rx="10"/>
  <text x="540" y="625" class="align-center">Third-party</text>
  <text x="540" y="645" class="align-center">APIs</text>
  
  <!--Arrows-->
  <!--Data Sources to Logic Apps-->
  <path d="M 190 180 L 280 230"/>
  <path d="M 190 280 L 280 260"/>
  <path d="M 190 380 L 280 290"/>
  <path d="M 190 480 L 280.3 315.8"/>
  <!--Logic Apps to DocumentDB-->
  <path d="M 480 260 L 540 210"/>
  <!--DocumentDB to Synapse-->
  <path d="M 740 200 L 820 200"/>
  <!--DocumentDB to Inventory Services-->
  <path d="M 638.8 260.3 L 700 360"/>
  <path d="M 638.5 260 L 860 360"/>
  <!--Synapse to Inventory Services-->
  <path d="M 900 260 L 700 360"/>
  <path d="M 920 260 L 860 360"/>
  <!--Inventory Services to Business Apps-->
  <path d="M 930 400 L 980 400"/>
  <path d="M 930 430 L 980 500"/>
  <!--DocumentDB to Alerts-->
  <path transform="matrix(0.3,-1,1,0.3,-26.8,664.5)" d="M 530.5 424.9 L 305.5 564.9"/>
  <!--Alerts to Notifications-->
  <!--Logic Apps to External Systems-->
  <path d="M 315 320.5 L 260 600"/>
  <path d="M 360 320 L 400 600"/>
  <path d="M 420 320 L 540 600"/>
  
  <!--Data flow labels-->
  <text x="820" y="320">Forecasts</text>
  <!--Arrow marker definition-->
  <defs>
    <marker id="arrowhead" markerWidth="10" markerHeight="7" refX="9" refY="3.5" orient="auto">
        <polygon fill="black" points="0,0 10,3.5 0,7"/>
    </marker>
  </defs>
</svg>